<svg xmlns="http://www.w3.org/2000/svg" viewBox="0 0 1080 705"><defs><style>.cls-1{fill:#ecc42b;}.cls-1,.cls-2,.cls-3,.cls-4{stroke:#333;stroke-miterlimit:10;}.cls-2{fill:#c1272d;}.cls-3{fill:#333;}.cls-4{fill:#e6e6e6;}</style></defs><title>TF47 GER 100% für SVG</title><g id="Layer_20" data-name="Layer 20"><rect class="cls-1" x="8.58" y="271.14" width="1062.84" height="64.56" rx="7.12"/><rect class="cls-2" x="8.58" y="137.37" width="1062.84" height="64.56" rx="7.08"/><rect class="cls-3" x="8.58" y="3" width="1062.84" height="64.56" rx="7.17"/><path class="cls-4" d="M1052.68,410.59,941.73,703l-29.36-11.08,95-249.86H868.41V410.59Z"/><path class="cls-4" d="M35,413.21h97.19v22.84H97.21v94.36H70V436.05H35Z"/><path class="cls-4" d="M244.07,509.06H201.52l-6.75,21.35H167.46l39.09-117.2H239l39.09,117.2H250.67Zm-35.79-21.75h28.88L222.8,440.68Z"/><path class="cls-4" d="M411.65,416.9v24.8a89.57,89.57,0,0,0-16.91-6.51,61,61,0,0,0-15.66-2.2q-9.74,0-14.41,3T360,445.24a9.07,9.07,0,0,0,3.14,7.34q3.14,2.63,11.46,4.51l11.54,2.59q17.67,3.93,25,11.93t7.38,22.77q0,19.38-10.32,28.85t-31.6,9.45a97.78,97.78,0,0,1-20.13-2.11,116.65,116.65,0,0,1-20.22-6.28V498.77a97,97,0,0,0,19.55,9,59.34,59.34,0,0,0,18.21,3c5.92,0,10.45-1.1,13.62-3.29a10.78,10.78,0,0,0,4.75-9.42c0-3.67-1.07-6.49-3.22-8.48s-6.43-3.77-12.87-5.34l-10.52-2.59q-15.78-3.77-23.12-12t-7.34-22.22q0-17.49,10.21-26.92t29.2-9.42a114.39,114.39,0,0,1,17.9,1.45A148.7,148.7,0,0,1,411.65,416.9Z"/><path class="cls-4" d="M488.72,413.21H516V456l39.17-42.78h31.64l-50.87,55.5L592,530.41H557.88L516,484.25v46.16H488.72Z"/><path class="cls-4" d="M35.23,563.22h79.52V588h-50v23.64h47v24.75h-47v53.83H35.23Z"/><path class="cls-4" d="M194.51,560.93q27.56,0,43.16,17.51t15.61,48.39q0,30.79-15.61,48.31t-43.16,17.51q-27.47,0-43.11-17.51t-15.65-48.31q0-30.87,15.65-48.39T194.51,560.93Zm0,23.72q-13.42,0-20.87,11.06t-7.44,31.12q0,20,7.44,31t20.87,11.06q13.53,0,21-11.06t7.44-31q0-20.07-7.44-31.12T194.51,584.65Z"/><path class="cls-4" d="M305,642.14v48.05H275.47v-127h45q22.62,0,33.12,8.42t10.5,26.62q0,12.59-5.44,20.66t-16.5,11.91A21.58,21.58,0,0,1,353,637.76q4.8,5.4,9.65,16.37l16,36.06H347.25l-13.87-31.55q-4.25-9.52-8.58-13t-11.48-3.49Zm12.42-22.62q9.18,0,13.22-3.83t4-12.58q0-8.68-4-12.42T317.4,587H305v32.57Z"/><path class="cls-4" d="M486.8,683.21a71.84,71.84,0,0,1-17,7.06,69.67,69.67,0,0,1-18.32,2.38q-28.58,0-45.25-17.73T389.6,626.83q0-30.44,16.66-48.17t45.25-17.73a69.67,69.67,0,0,1,18.32,2.38,71.42,71.42,0,0,1,17,7.06v26.27a63.11,63.11,0,0,0-16.2-9.1,48.69,48.69,0,0,0-16.71-2.89q-15.83,0-24.83,11.23t-9,31q0,19.65,9,30.87t24.83,11.23A48.69,48.69,0,0,0,470.6,666a63.11,63.11,0,0,0,16.2-9.1Z"/><path class="cls-4" d="M511.12,563.22h79.51V588h-50v23.64h47v24.75h-47v29.08h51.7v24.75H511.12Z"/><path class="cls-4" d="M846.66,410.23l-31.82.41L665.9,625.11H815.18v67.34h31.48V625.11h30.41v-31.3H846.66ZM722.34,593.81l92.6-128.24.24,128.24Z"/></g></svg>